<?xml version="1.0" encoding="UTF-8" standalone="no"?>
<!DOCTYPE svg PUBLIC "-//W3C//DTD SVG 1.1//EN" "http://www.w3.org/Graphics/SVG/1.1/DTD/svg11.dtd">
<svg width="100%" height="100%" viewBox="-3 -3 178 112" version="1.1" xmlns="http://www.w3.org/2000/svg" xmlns:xlink="http://www.w3.org/1999/xlink" xml:space="preserve" xmlns:serif="http://www.serif.com/" style="fill-rule:evenodd;clip-rule:evenodd;">
    <g>
        <path d="M35.276,23.488C53.368,19.726 71.272,14.901 89.552,12.201C120.962,7.563 122.875,9.954 101.902,22.246C54.562,49.993 54.364,45.638 20.772,71.196C17.307,73.833 6.692,80.33 11.022,79.893C25.937,78.388 119.932,31.051 130.168,39.993C131.218,40.911 72.11,72.668 62.065,78.784C57.145,81.78 42.402,90.022 48.049,88.895C75.269,83.463 218.185,38.455 137.694,71.93" style="fill:none;stroke:rgb(255,201,50);stroke-width:20px;"/>
        <g>
            <path d="M86.366,6.102C83.691,5.569 81.016,7.169 80.348,9.969L60.288,99.969C59.753,102.635 61.491,105.302 64.166,105.835C66.841,106.369 69.382,104.769 70.05,102.102L90.11,12.102C90.78,9.302 89.04,6.635 86.366,6.102ZM48.653,32.369C46.647,30.369 43.571,30.369 41.565,32.369L21.505,52.369C19.498,54.369 19.498,57.435 21.505,59.435L41.565,79.435C43.571,81.302 46.78,81.169 48.653,79.169C50.391,77.302 50.391,74.235 48.653,72.369L32.203,55.969L48.786,39.569C50.659,37.569 50.659,34.369 48.653,32.369C48.786,32.502 48.786,32.502 48.653,32.369ZM128.894,52.369L108.834,32.369C106.961,30.369 103.752,30.235 101.745,32.102C99.739,33.969 99.605,37.169 101.478,39.169L101.745,39.435L118.33,55.97L101.746,72.37C99.874,74.37 100.008,77.57 102.014,79.436C103.886,81.17 106.962,81.17 108.834,79.436L128.894,59.436C130.901,57.57 130.901,54.37 128.894,52.37L128.894,52.369Z" style="fill-rule:nonzero;"/>
        </g>
    </g>
</svg>
