<?xml version="1.0" encoding="UTF-8" standalone="no"?>
<!DOCTYPE svg PUBLIC "-//W3C//DTD SVG 1.1//EN" "http://www.w3.org/Graphics/SVG/1.1/DTD/svg11.dtd">
<svg width="100%" height="100%" viewBox="0 0 547 534" version="1.1" xmlns="http://www.w3.org/2000/svg" xmlns:xlink="http://www.w3.org/1999/xlink" xml:space="preserve" xmlns:serif="http://www.serif.com/" style="fill-rule:evenodd;clip-rule:evenodd;stroke-linejoin:round;stroke-miterlimit:2;">
    <g transform="matrix(0.914349,0,0,0.914349,-275.191,-99.0727)">
        <path d="M599.999,133.333C449.015,133.333 326.581,255.739 326.581,406.751C326.581,527.551 404.924,630.039 513.562,666.193C527.225,668.724 532.242,660.261 532.242,653.039C532.242,646.524 531.988,624.982 531.871,602.135C455.807,618.675 439.756,569.875 439.756,569.875C427.318,538.277 409.398,529.869 409.398,529.869C384.59,512.899 411.268,513.248 411.268,513.248C438.723,515.176 453.18,541.427 453.18,541.427C477.566,583.223 517.142,571.139 532.745,564.152C535.204,546.485 542.285,534.418 550.105,527.591C489.374,520.682 425.534,497.233 425.534,392.466C425.534,362.62 436.215,338.229 453.706,319.082C450.867,312.19 441.508,284.381 456.359,246.721C456.359,246.721 479.319,239.376 531.563,274.752C553.374,268.694 576.763,265.655 600,265.547C623.235,265.65 646.644,268.693 668.495,274.752C720.681,239.376 743.609,246.721 743.609,246.721C758.492,284.381 749.133,312.19 746.294,319.082C763.826,338.229 774.428,362.62 774.428,392.466C774.428,497.486 710.466,520.605 649.582,527.374C659.39,535.859 668.128,552.498 668.128,578.007C668.128,614.591 667.816,644.034 667.816,653.039C667.816,660.32 672.733,668.846 686.592,666.161C795.175,629.967 873.418,527.514 873.418,406.752C873.418,255.738 751.003,133.333 600,133.333" style="fill:white;"/>
    </g>
</svg>
